<mxfile host="Electron" modified="2024-04-11T00:54:23.109Z" agent="Mozilla/5.0 (Windows NT 10.0; Win64; x64) AppleWebKit/537.36 (KHTML, like Gecko) draw.io/24.1.0 Chrome/120.0.6099.109 Electron/28.1.0 Safari/537.36" etag="XpXU0ZjLm_UqWsbJaYqQ" version="24.1.0" type="device">
  <diagram name="Página-1" id="AQBmPXIcI2-q7P_VaFd3">
    <mxGraphModel dx="1420" dy="830" grid="1" gridSize="10" guides="1" tooltips="1" connect="1" arrows="1" fold="1" page="1" pageScale="1" pageWidth="827" pageHeight="1169" background="#CCE5FF" math="0" shadow="0">
      <root>
        <mxCell id="0" />
        <mxCell id="1" parent="0" />
        <mxCell id="cPmn6xuYMGGgHVn3oPAK-1" value="&lt;font style=&quot;font-size: 16px;&quot; color=&quot;#000000&quot; face=&quot;Comic Sans MS&quot;&gt;&lt;b style=&quot;&quot;&gt;6 Hacer un programa para ingresar un N valor que indica la cantidad de números que componen una lista y luego solicitar se ingresen esos N números. Se pide informar cuantos son positivos&lt;br&gt;&lt;br&gt;Ejemplo A: Se ingresa como N el valor 5, y luego se ingresa: 10, -3, 2, 5, 4. Se&lt;br&gt;listará: Cantidad de Positivos: 4&lt;/b&gt;&lt;/font&gt;&lt;div style=&quot;font-size: 16px;&quot;&gt;&lt;font style=&quot;font-size: 16px;&quot; color=&quot;#000000&quot; face=&quot;Comic Sans MS&quot;&gt;&lt;b style=&quot;&quot;&gt;&lt;br&gt;Ejemplo B: Se ingresa como N el valor 6, y luego se ingresa: -10, -3, -2, 0, -5, -4.&lt;br&gt;Se listará: Cantidad de Positivos: 0&lt;/b&gt;&lt;/font&gt;&lt;/div&gt;" style="text;whiteSpace=wrap;html=1;fontFamily=Architects Daughter;fontSource=https%3A%2F%2Ffonts.googleapis.com%2Fcss%3Ffamily%3DArchitects%2BDaughter;" parent="1" vertex="1">
          <mxGeometry x="80" width="680" height="210" as="geometry" />
        </mxCell>
        <mxCell id="cPmn6xuYMGGgHVn3oPAK-59" value="" style="group;aspect=fixed;" parent="1" vertex="1" connectable="0">
          <mxGeometry x="90" y="240" width="537.5" height="760" as="geometry" />
        </mxCell>
        <mxCell id="cPmn6xuYMGGgHVn3oPAK-7" value="" style="group;aspect=fixed;" parent="cPmn6xuYMGGgHVn3oPAK-59" vertex="1" connectable="0">
          <mxGeometry x="300" width="40" height="40" as="geometry" />
        </mxCell>
        <mxCell id="cPmn6xuYMGGgHVn3oPAK-2" value="" style="strokeWidth=2;html=1;shape=mxgraph.flowchart.start_2;whiteSpace=wrap;rounded=0;labelBackgroundColor=none;strokeColor=#000000;align=center;verticalAlign=middle;fontFamily=Helvetica;fontSize=12;fontColor=default;fillColor=#d5e8d4;" parent="cPmn6xuYMGGgHVn3oPAK-7" vertex="1">
          <mxGeometry width="40" height="40" as="geometry" />
        </mxCell>
        <mxCell id="cPmn6xuYMGGgHVn3oPAK-5" value="&lt;b&gt;&lt;font style=&quot;font-size: 17px;&quot; face=&quot;Comic Sans MS&quot; color=&quot;#000000&quot;&gt;I&lt;/font&gt;&lt;/b&gt;" style="text;strokeColor=none;align=center;fillColor=none;html=1;verticalAlign=middle;whiteSpace=wrap;rounded=0;fontFamily=Architects Daughter;fontSource=https%3A%2F%2Ffonts.googleapis.com%2Fcss%3Ffamily%3DArchitects%2BDaughter;" parent="cPmn6xuYMGGgHVn3oPAK-7" vertex="1">
          <mxGeometry x="5" y="5" width="30" height="30" as="geometry" />
        </mxCell>
        <mxCell id="cPmn6xuYMGGgHVn3oPAK-8" value="" style="group;aspect=fixed;" parent="cPmn6xuYMGGgHVn3oPAK-59" vertex="1" connectable="0">
          <mxGeometry x="300" y="720" width="40" height="40" as="geometry" />
        </mxCell>
        <mxCell id="cPmn6xuYMGGgHVn3oPAK-3" value="" style="strokeWidth=2;html=1;shape=mxgraph.flowchart.start_2;whiteSpace=wrap;rounded=0;labelBackgroundColor=none;strokeColor=#000000;align=center;verticalAlign=middle;fontFamily=Helvetica;fontSize=12;fontColor=default;fillColor=#d5e8d4;" parent="cPmn6xuYMGGgHVn3oPAK-8" vertex="1">
          <mxGeometry width="40" height="40" as="geometry" />
        </mxCell>
        <mxCell id="cPmn6xuYMGGgHVn3oPAK-6" value="&lt;b&gt;&lt;font style=&quot;font-size: 17px;&quot; face=&quot;Comic Sans MS&quot; color=&quot;#000000&quot;&gt;F&lt;/font&gt;&lt;/b&gt;" style="text;strokeColor=none;align=center;fillColor=none;html=1;verticalAlign=middle;whiteSpace=wrap;rounded=0;fontFamily=Architects Daughter;fontSource=https://fonts.googleapis.com/css?family=Architects+Daughter;" parent="cPmn6xuYMGGgHVn3oPAK-8" vertex="1">
          <mxGeometry x="5" y="5" width="30" height="30" as="geometry" />
        </mxCell>
        <mxCell id="cPmn6xuYMGGgHVn3oPAK-10" value="" style="group;aspect=fixed;" parent="cPmn6xuYMGGgHVn3oPAK-59" vertex="1" connectable="0">
          <mxGeometry x="250" y="80" width="140" height="40" as="geometry" />
        </mxCell>
        <mxCell id="cPmn6xuYMGGgHVn3oPAK-4" value="" style="shape=trapezoid;perimeter=trapezoidPerimeter;whiteSpace=wrap;html=1;fixedSize=1;rounded=0;labelBackgroundColor=none;strokeColor=#121211;strokeWidth=2;align=center;verticalAlign=middle;fontFamily=Helvetica;fontSize=12;fontColor=default;fillColor=#d5e8d4;direction=west;container=0;" parent="cPmn6xuYMGGgHVn3oPAK-10" vertex="1">
          <mxGeometry width="140" height="40" as="geometry">
            <mxRectangle x="-1020" y="-650" width="50" height="40" as="alternateBounds" />
          </mxGeometry>
        </mxCell>
        <mxCell id="cPmn6xuYMGGgHVn3oPAK-9" value="&lt;b&gt;&lt;font style=&quot;font-size: 16px;&quot; face=&quot;Comic Sans MS&quot; color=&quot;#000000&quot;&gt;num&lt;/font&gt;&lt;/b&gt;" style="text;strokeColor=none;align=center;fillColor=none;html=1;verticalAlign=middle;whiteSpace=wrap;rounded=0;fontFamily=Architects Daughter;fontSource=https://fonts.googleapis.com/css?family=Architects+Daughter;container=0;" parent="cPmn6xuYMGGgHVn3oPAK-10" vertex="1">
          <mxGeometry x="20" y="5" width="100" height="30" as="geometry" />
        </mxCell>
        <mxCell id="cPmn6xuYMGGgHVn3oPAK-13" value="" style="group;aspect=fixed;" parent="cPmn6xuYMGGgHVn3oPAK-59" vertex="1" connectable="0">
          <mxGeometry y="170" width="537.5" height="430" as="geometry" />
        </mxCell>
        <mxCell id="cPmn6xuYMGGgHVn3oPAK-14" value="" style="whiteSpace=wrap;html=1;aspect=fixed;rounded=0;labelBackgroundColor=none;strokeColor=#000000;strokeWidth=2;align=center;verticalAlign=middle;fontFamily=Helvetica;fontSize=12;fontColor=default;fillColor=#d5e8d4;" parent="cPmn6xuYMGGgHVn3oPAK-13" vertex="1">
          <mxGeometry x="107.49999999999997" width="429.9999999999999" height="429.9999999999999" as="geometry" />
        </mxCell>
        <mxCell id="cPmn6xuYMGGgHVn3oPAK-15" value="" style="group;aspect=fixed;" parent="cPmn6xuYMGGgHVn3oPAK-13" vertex="1" connectable="0">
          <mxGeometry x="10.749999999999998" y="32.249999999999986" width="193.49999999999997" height="193.49999999999997" as="geometry" />
        </mxCell>
        <mxCell id="cPmn6xuYMGGgHVn3oPAK-16" value="" style="ellipse;whiteSpace=wrap;html=1;aspect=fixed;rounded=0;labelBackgroundColor=none;strokeColor=#0F140C;strokeWidth=3;align=center;verticalAlign=middle;fontFamily=Helvetica;fontSize=12;fontColor=default;fillColor=#d5e8d4;" parent="cPmn6xuYMGGgHVn3oPAK-15" vertex="1">
          <mxGeometry width="193.49999999999997" height="193.49999999999997" as="geometry" />
        </mxCell>
        <mxCell id="cPmn6xuYMGGgHVn3oPAK-17" value="" style="endArrow=none;html=1;rounded=0;strokeColor=#0F140C;fontFamily=Helvetica;fontSize=12;fontColor=default;fillColor=#B2C9AB;strokeWidth=2;" parent="cPmn6xuYMGGgHVn3oPAK-15" edge="1">
          <mxGeometry width="50" height="50" relative="1" as="geometry">
            <mxPoint x="185.75999999999993" y="54.17999999999998" as="sourcePoint" />
            <mxPoint x="7.7399999999999975" y="54.17999999999998" as="targetPoint" />
          </mxGeometry>
        </mxCell>
        <mxCell id="cPmn6xuYMGGgHVn3oPAK-18" value="" style="endArrow=none;html=1;rounded=0;strokeColor=#0F140C;fontFamily=Helvetica;fontSize=12;fontColor=default;fillColor=#B2C9AB;exitX=0.264;exitY=0.952;exitDx=0;exitDy=0;exitPerimeter=0;strokeWidth=2;" parent="cPmn6xuYMGGgHVn3oPAK-15" source="cPmn6xuYMGGgHVn3oPAK-16" edge="1">
          <mxGeometry width="50" height="50" relative="1" as="geometry">
            <mxPoint x="46.43999999999998" y="116.09999999999998" as="sourcePoint" />
            <mxPoint x="54.17999999999998" y="54.17999999999998" as="targetPoint" />
          </mxGeometry>
        </mxCell>
        <mxCell id="cPmn6xuYMGGgHVn3oPAK-19" value="" style="endArrow=none;html=1;rounded=0;strokeColor=#0F140C;fontFamily=Helvetica;fontSize=12;fontColor=default;fillColor=#B2C9AB;exitX=0.728;exitY=0.948;exitDx=0;exitDy=0;exitPerimeter=0;strokeWidth=2;" parent="cPmn6xuYMGGgHVn3oPAK-15" source="cPmn6xuYMGGgHVn3oPAK-16" edge="1">
          <mxGeometry width="50" height="50" relative="1" as="geometry">
            <mxPoint x="116.09999999999998" y="131.57999999999998" as="sourcePoint" />
            <mxPoint x="140.86799999999997" y="54.17999999999998" as="targetPoint" />
          </mxGeometry>
        </mxCell>
        <mxCell id="cPmn6xuYMGGgHVn3oPAK-23" value="&lt;b&gt;&lt;font style=&quot;font-size: 14px;&quot; face=&quot;Comic Sans MS&quot; color=&quot;#000000&quot;&gt;x++&lt;/font&gt;&lt;/b&gt;" style="text;strokeColor=none;align=center;fillColor=none;html=1;verticalAlign=middle;whiteSpace=wrap;rounded=0;fontFamily=Architects Daughter;fontSource=https://fonts.googleapis.com/css?family=Architects+Daughter;" parent="cPmn6xuYMGGgHVn3oPAK-15" vertex="1">
          <mxGeometry x="149.25" y="90.75" width="30" height="30" as="geometry" />
        </mxCell>
        <mxCell id="cPmn6xuYMGGgHVn3oPAK-58" value="&lt;font size=&quot;1&quot; color=&quot;#000000&quot; style=&quot;&quot; face=&quot;Comic Sans MS&quot;&gt;&lt;b style=&quot;font-size: 19px;&quot;&gt;x&lt;/b&gt;&lt;/font&gt;" style="text;strokeColor=none;align=center;fillColor=none;html=1;verticalAlign=middle;whiteSpace=wrap;rounded=0;fontFamily=Architects Daughter;fontSource=https%3A%2F%2Ffonts.googleapis.com%2Fcss%3Ffamily%3DArchitects%2BDaughter;" parent="cPmn6xuYMGGgHVn3oPAK-15" vertex="1">
          <mxGeometry x="66.75" y="17.75" width="60" height="30" as="geometry" />
        </mxCell>
        <mxCell id="cPmn6xuYMGGgHVn3oPAK-28" value="" style="group;aspect=fixed;" parent="cPmn6xuYMGGgHVn3oPAK-13" vertex="1" connectable="0">
          <mxGeometry x="290" y="40" width="130" height="40" as="geometry" />
        </mxCell>
        <mxCell id="cPmn6xuYMGGgHVn3oPAK-24" value="" style="shape=trapezoid;perimeter=trapezoidPerimeter;whiteSpace=wrap;html=1;fixedSize=1;rounded=0;labelBackgroundColor=none;strokeColor=#121211;strokeWidth=2;align=center;verticalAlign=middle;fontFamily=Helvetica;fontSize=12;fontColor=default;fillColor=#d5e8d4;direction=west;container=0;" parent="cPmn6xuYMGGgHVn3oPAK-28" vertex="1">
          <mxGeometry width="130" height="40" as="geometry">
            <mxRectangle x="-1020" y="-650" width="50" height="40" as="alternateBounds" />
          </mxGeometry>
        </mxCell>
        <mxCell id="cPmn6xuYMGGgHVn3oPAK-25" value="&lt;b&gt;&lt;font style=&quot;font-size: 14px;&quot; face=&quot;Comic Sans MS&quot; color=&quot;#000000&quot;&gt;numeros&lt;/font&gt;&lt;/b&gt;" style="text;strokeColor=none;align=center;fillColor=none;html=1;verticalAlign=middle;whiteSpace=wrap;rounded=0;fontFamily=Architects Daughter;fontSource=https://fonts.googleapis.com/css?family=Architects+Daughter;container=0;" parent="cPmn6xuYMGGgHVn3oPAK-28" vertex="1">
          <mxGeometry x="25" y="5" width="80" height="30" as="geometry" />
        </mxCell>
        <mxCell id="cPmn6xuYMGGgHVn3oPAK-33" value="" style="group;aspect=fixed;" parent="cPmn6xuYMGGgHVn3oPAK-13" vertex="1" connectable="0">
          <mxGeometry x="300" y="115.75" width="110" height="110" as="geometry" />
        </mxCell>
        <mxCell id="cPmn6xuYMGGgHVn3oPAK-29" value="" style="rhombus;whiteSpace=wrap;html=1;rounded=0;labelBackgroundColor=none;strokeColor=#0F140C;strokeWidth=2;align=center;verticalAlign=middle;fontFamily=Helvetica;fontSize=12;fontColor=default;fillColor=#d5e8d4;" parent="cPmn6xuYMGGgHVn3oPAK-33" vertex="1">
          <mxGeometry width="110" height="110" as="geometry" />
        </mxCell>
        <mxCell id="cPmn6xuYMGGgHVn3oPAK-30" value="&lt;b&gt;&lt;font style=&quot;font-size: 14px;&quot; face=&quot;Comic Sans MS&quot; color=&quot;#000000&quot;&gt;numeros&lt;/font&gt;&lt;/b&gt;&lt;div&gt;&lt;b&gt;&lt;font style=&quot;font-size: 14px;&quot; face=&quot;Comic Sans MS&quot; color=&quot;#000000&quot;&gt;&amp;gt;&lt;/font&gt;&lt;/b&gt;&lt;/div&gt;&lt;div&gt;&lt;b&gt;&lt;font style=&quot;font-size: 14px;&quot; face=&quot;Comic Sans MS&quot; color=&quot;#000000&quot;&gt;0&lt;/font&gt;&lt;/b&gt;&lt;/div&gt;" style="text;strokeColor=none;align=center;fillColor=none;html=1;verticalAlign=middle;whiteSpace=wrap;rounded=0;fontFamily=Architects Daughter;fontSource=https://fonts.googleapis.com/css?family=Architects+Daughter;" parent="cPmn6xuYMGGgHVn3oPAK-33" vertex="1">
          <mxGeometry x="15" y="33.5" width="80" height="47" as="geometry" />
        </mxCell>
        <mxCell id="cPmn6xuYMGGgHVn3oPAK-56" value="" style="line;strokeWidth=2;direction=south;html=1;hachureGap=4;fontFamily=Architects Daughter;fontSource=https://fonts.googleapis.com/css?family=Architects+Daughter;strokeColor=#000000;" parent="cPmn6xuYMGGgHVn3oPAK-33" vertex="1">
          <mxGeometry x="50" y="-35.75" width="10" height="35.75" as="geometry" />
        </mxCell>
        <mxCell id="cPmn6xuYMGGgHVn3oPAK-36" value="" style="group;aspect=fixed;" parent="cPmn6xuYMGGgHVn3oPAK-13" vertex="1" connectable="0">
          <mxGeometry x="190" y="225.75" width="120" height="40" as="geometry" />
        </mxCell>
        <mxCell id="cPmn6xuYMGGgHVn3oPAK-34" value="" style="rounded=0;whiteSpace=wrap;html=1;labelBackgroundColor=none;strokeColor=#0f100e;strokeWidth=2;align=center;verticalAlign=middle;fontFamily=Helvetica;fontSize=12;fontColor=default;fillColor=#d5e8d4;" parent="cPmn6xuYMGGgHVn3oPAK-36" vertex="1">
          <mxGeometry width="120" height="40" as="geometry" />
        </mxCell>
        <mxCell id="cPmn6xuYMGGgHVn3oPAK-35" value="&lt;b&gt;&lt;font style=&quot;font-size: 15px;&quot; face=&quot;Comic Sans MS&quot; color=&quot;#000000&quot;&gt;can_positivos++&lt;/font&gt;&lt;/b&gt;" style="text;strokeColor=none;align=center;fillColor=none;html=1;verticalAlign=middle;whiteSpace=wrap;rounded=0;fontFamily=Architects Daughter;fontSource=https://fonts.googleapis.com/css?family=Architects+Daughter;" parent="cPmn6xuYMGGgHVn3oPAK-36" vertex="1">
          <mxGeometry x="20" y="5" width="80" height="30" as="geometry" />
        </mxCell>
        <mxCell id="cPmn6xuYMGGgHVn3oPAK-52" value="" style="line;strokeWidth=2;direction=south;html=1;hachureGap=4;fontFamily=Architects Daughter;fontSource=https://fonts.googleapis.com/css?family=Architects+Daughter;strokeColor=#000000;" parent="cPmn6xuYMGGgHVn3oPAK-13" vertex="1">
          <mxGeometry x="245" y="170" width="10" height="60" as="geometry" />
        </mxCell>
        <mxCell id="cPmn6xuYMGGgHVn3oPAK-50" value="" style="line;strokeWidth=2;direction=south;html=1;hachureGap=4;fontFamily=Architects Daughter;fontSource=https://fonts.googleapis.com/css?family=Architects+Daughter;strokeColor=#000000;" parent="cPmn6xuYMGGgHVn3oPAK-13" vertex="1">
          <mxGeometry x="455" y="170" width="10" height="130" as="geometry" />
        </mxCell>
        <mxCell id="cPmn6xuYMGGgHVn3oPAK-53" value="" style="line;strokeWidth=2;direction=south;html=1;hachureGap=4;fontFamily=Architects Daughter;fontSource=https://fonts.googleapis.com/css?family=Architects+Daughter;strokeColor=#000000;" parent="cPmn6xuYMGGgHVn3oPAK-13" vertex="1">
          <mxGeometry x="245" y="265.75" width="10" height="34.25" as="geometry" />
        </mxCell>
        <mxCell id="67p2K3ZvZmKLKAhUYvcq-2" value="&lt;font color=&quot;#000000&quot;&gt;V&lt;/font&gt;" style="text;strokeColor=none;align=center;fillColor=none;html=1;verticalAlign=middle;whiteSpace=wrap;rounded=0;fontFamily=Comic Sans MS;fontStyle=1;fontSize=13;" vertex="1" parent="cPmn6xuYMGGgHVn3oPAK-13">
          <mxGeometry x="237" y="146" width="30" height="30" as="geometry" />
        </mxCell>
        <mxCell id="67p2K3ZvZmKLKAhUYvcq-1" value="&lt;font color=&quot;#000000&quot;&gt;F&lt;/font&gt;" style="text;strokeColor=none;align=center;fillColor=none;html=1;verticalAlign=middle;whiteSpace=wrap;rounded=0;fontFamily=Comic Sans MS;fontStyle=1;fontSize=13;" vertex="1" parent="cPmn6xuYMGGgHVn3oPAK-13">
          <mxGeometry x="441" y="147" width="30" height="30" as="geometry" />
        </mxCell>
        <mxCell id="cPmn6xuYMGGgHVn3oPAK-20" value="&lt;b&gt;&lt;font style=&quot;font-size: 12px;&quot; face=&quot;Comic Sans MS&quot; color=&quot;#000000&quot;&gt;x = 0&lt;/font&gt;&lt;/b&gt;" style="text;strokeColor=none;align=center;fillColor=none;html=1;verticalAlign=middle;whiteSpace=wrap;rounded=0;fontFamily=Architects Daughter;fontSource=https://fonts.googleapis.com/css?family=Architects+Daughter;" parent="cPmn6xuYMGGgHVn3oPAK-59" vertex="1">
          <mxGeometry x="20" y="293" width="40" height="30" as="geometry" />
        </mxCell>
        <mxCell id="cPmn6xuYMGGgHVn3oPAK-21" value="&lt;b&gt;&lt;font style=&quot;font-size: 13px;&quot; face=&quot;Comic Sans MS&quot; color=&quot;#000000&quot;&gt;x &amp;lt; num&lt;/font&gt;&lt;/b&gt;" style="text;strokeColor=none;align=center;fillColor=none;html=1;verticalAlign=middle;whiteSpace=wrap;rounded=0;fontFamily=Architects Daughter;fontSource=https://fonts.googleapis.com/css?family=Architects+Daughter;" parent="cPmn6xuYMGGgHVn3oPAK-59" vertex="1">
          <mxGeometry x="77.5" y="293" width="60" height="30" as="geometry" />
        </mxCell>
        <mxCell id="cPmn6xuYMGGgHVn3oPAK-39" value="" style="group;aspect=fixed;" parent="cPmn6xuYMGGgHVn3oPAK-59" vertex="1" connectable="0">
          <mxGeometry x="245" y="640" width="150" height="40" as="geometry" />
        </mxCell>
        <mxCell id="cPmn6xuYMGGgHVn3oPAK-37" value="" style="shape=trapezoid;perimeter=trapezoidPerimeter;whiteSpace=wrap;html=1;fixedSize=1;rounded=0;labelBackgroundColor=none;strokeColor=#0F140C;strokeWidth=2;align=center;verticalAlign=middle;fontFamily=Helvetica;fontSize=12;fontColor=default;fillColor=#d5e8d4;" parent="cPmn6xuYMGGgHVn3oPAK-39" vertex="1">
          <mxGeometry width="150" height="40" as="geometry" />
        </mxCell>
        <mxCell id="cPmn6xuYMGGgHVn3oPAK-38" value="&lt;b&gt;&lt;font style=&quot;font-size: 15px;&quot; face=&quot;Comic Sans MS&quot; color=&quot;#000000&quot;&gt;can_positivos&lt;/font&gt;&lt;/b&gt;" style="text;strokeColor=none;align=center;fillColor=none;html=1;verticalAlign=middle;whiteSpace=wrap;rounded=0;fontFamily=Architects Daughter;fontSource=https://fonts.googleapis.com/css?family=Architects+Daughter;" parent="cPmn6xuYMGGgHVn3oPAK-39" vertex="1">
          <mxGeometry x="20" y="5" width="110" height="30" as="geometry" />
        </mxCell>
        <mxCell id="cPmn6xuYMGGgHVn3oPAK-40" value="" style="line;strokeWidth=2;html=1;perimeter=backbonePerimeter;points=[];outlineConnect=0;hachureGap=4;fontFamily=Architects Daughter;fontSource=https://fonts.googleapis.com/css?family=Architects+Daughter;strokeColor=#000000;" parent="cPmn6xuYMGGgHVn3oPAK-59" vertex="1">
          <mxGeometry x="410" y="336" width="50" height="10" as="geometry" />
        </mxCell>
        <mxCell id="cPmn6xuYMGGgHVn3oPAK-42" value="" style="line;strokeWidth=2;html=1;perimeter=backbonePerimeter;points=[];outlineConnect=0;hachureGap=4;fontFamily=Architects Daughter;fontSource=https://fonts.googleapis.com/css?family=Architects+Daughter;strokeColor=#000000;" parent="cPmn6xuYMGGgHVn3oPAK-59" vertex="1">
          <mxGeometry x="248" y="464" width="212" height="10" as="geometry" />
        </mxCell>
        <mxCell id="cPmn6xuYMGGgHVn3oPAK-43" value="" style="line;strokeWidth=2;html=1;perimeter=backbonePerimeter;points=[];outlineConnect=0;hachureGap=4;fontFamily=Architects Daughter;fontSource=https://fonts.googleapis.com/css?family=Architects+Daughter;strokeColor=#000000;" parent="cPmn6xuYMGGgHVn3oPAK-59" vertex="1">
          <mxGeometry x="250" y="336" width="50" height="10" as="geometry" />
        </mxCell>
        <mxCell id="cPmn6xuYMGGgHVn3oPAK-49" value="" style="line;strokeWidth=2;direction=south;html=1;hachureGap=4;fontFamily=Architects Daughter;fontSource=https://fonts.googleapis.com/css?family=Architects+Daughter;strokeColor=#000000;" parent="cPmn6xuYMGGgHVn3oPAK-59" vertex="1">
          <mxGeometry x="315" y="40" width="10" height="40" as="geometry" />
        </mxCell>
        <mxCell id="cPmn6xuYMGGgHVn3oPAK-51" value="" style="line;strokeWidth=2;direction=south;html=1;hachureGap=4;fontFamily=Architects Daughter;fontSource=https://fonts.googleapis.com/css?family=Architects+Daughter;strokeColor=#000000;" parent="cPmn6xuYMGGgHVn3oPAK-59" vertex="1">
          <mxGeometry x="315" y="120" width="10" height="50" as="geometry" />
        </mxCell>
        <mxCell id="cPmn6xuYMGGgHVn3oPAK-54" value="" style="line;strokeWidth=2;direction=south;html=1;hachureGap=4;fontFamily=Architects Daughter;fontSource=https://fonts.googleapis.com/css?family=Architects+Daughter;strokeColor=#000000;" parent="cPmn6xuYMGGgHVn3oPAK-59" vertex="1">
          <mxGeometry x="314" y="680" width="10" height="40" as="geometry" />
        </mxCell>
        <mxCell id="cPmn6xuYMGGgHVn3oPAK-55" value="" style="line;strokeWidth=2;direction=south;html=1;hachureGap=4;fontFamily=Architects Daughter;fontSource=https://fonts.googleapis.com/css?family=Architects+Daughter;strokeColor=#000000;" parent="cPmn6xuYMGGgHVn3oPAK-59" vertex="1">
          <mxGeometry x="315" y="600" width="10" height="40" as="geometry" />
        </mxCell>
      </root>
    </mxGraphModel>
  </diagram>
</mxfile>
